<!DOCTYPE svg PUBLIC "-//W3C//DTD SVG 1.1//EN" "http://www.w3.org/Graphics/SVG/1.1/DTD/svg11.dtd">
                <svg xmlns="http://www.w3.org/2000/svg" xmlns:xlink="http://www.w3.org/1999/xlink" 
                width="754" height="2761">
                
                <g>
                   <rect x="50" y="65"
            width="279.6" height="30"
            rx="3" ry="3"
            style="fill:#90caf9; stroke:#444; stroke-width:1" />
                   <title>let express = require(&apos;express&apos;)</title>
            <text x="65" y="85"
                font-family="monospace" font-size="13" fill="#222">
                <tspan x="65" y="85">let express = require(&apos;express&apos;)</tspan>
            </text>
                   
                   
                </g>
                <g>
                   <rect x="50" y="113.5"
            width="232.79999999999998" height="30"
            rx="3" ry="3"
            style="fill:#90caf9; stroke:#444; stroke-width:1" />
                   <title>let path = require(&apos;path&apos;)</title>
            <text x="65" y="133.5"
                font-family="monospace" font-size="13" fill="#222">
                <tspan x="65" y="133.5">let path = require(&apos;path&apos;)</tspan>
            </text>
                   
                   
                </g>
                <g>
                   <rect x="50" y="162"
            width="326.4" height="30"
            rx="3" ry="3"
            style="fill:#90caf9; stroke:#444; stroke-width:1" />
                   <title>let favicon = require(&apos;serve-favicon&apos;)</title>
            <text x="65" y="182"
                font-family="monospace" font-size="13" fill="#222">
                <tspan x="65" y="182">let favicon = require(&apos;serve-favicon&apos;)</tspan>
            </text>
                   
                   
                </g>
                <g>
                   <rect x="50" y="210.5"
            width="365.4" height="30"
            rx="3" ry="3"
            style="fill:#90caf9; stroke:#444; stroke-width:1" />
                   <title>let cookieParser = require(&apos;cookie-parser&apos;)</title>
            <text x="65" y="230.5"
                font-family="monospace" font-size="13" fill="#222">
                <tspan x="65" y="230.5">let cookieParser = require(&apos;cookie-parser&apos;)</tspan>
            </text>
                   
                   
                </g>
                <g>
                   <rect x="50" y="259"
            width="334.2" height="30"
            rx="3" ry="3"
            style="fill:#90caf9; stroke:#444; stroke-width:1" />
                   <title>let bodyParser = require(&apos;body-parser&apos;)</title>
            <text x="65" y="279"
                font-family="monospace" font-size="13" fill="#222">
                <tspan x="65" y="279">let bodyParser = require(&apos;body-parser&apos;)</tspan>
            </text>
                   
                   
                </g>
                <g>
                   <rect x="50" y="307.5"
            width="318.59999999999997" height="30"
            rx="3" ry="3"
            style="fill:#90caf9; stroke:#444; stroke-width:1" />
                   <title>let index = require(&apos;./routes/index&apos;)</title>
            <text x="65" y="327.5"
                font-family="monospace" font-size="13" fill="#222">
                <tspan x="65" y="327.5">let index = require(&apos;./routes/index&apos;)</tspan>
            </text>
                   
                   
                </g>
                <g>
                   <rect x="50" y="356"
            width="264" height="30"
            rx="3" ry="3"
            style="fill:#90caf9; stroke:#444; stroke-width:1" />
                   <title>let logger = require(&apos;morgan&apos;)</title>
            <text x="65" y="376"
                font-family="monospace" font-size="13" fill="#222">
                <tspan x="65" y="376">let logger = require(&apos;morgan&apos;)</tspan>
            </text>
                   
                   
                </g>
                <g>
                   <rect x="50" y="404.5"
            width="334.2" height="30"
            rx="3" ry="3"
            style="fill:#90caf9; stroke:#444; stroke-width:1" />
                   <title>let {...} = require(&apos;./routes/generic&apos;)</title>
            <text x="65" y="424.5"
                font-family="monospace" font-size="13" fill="#222">
                <tspan x="65" y="424.5">let {...} = require(&apos;./routes/generic&apos;)</tspan>
            </text>
                   
                   
                </g>
                <g>
                   <rect x="87" y="453"
            width="92.4" height="30"
            rx="2" ry="2"
            style="fill:#90caf9; stroke:#444; stroke-width:1" />
                   <title>httpPage</title>
            <text x="102" y="473"
                font-family="monospace" font-size="13" fill="#222">
                <tspan x="102" y="473">httpPage</tspan>
            </text>
                   
                   
                </g>
                <g>
                   <rect x="87" y="501.5"
            width="100.2" height="30"
            rx="2" ry="2"
            style="fill:#90caf9; stroke:#444; stroke-width:1" />
                   <title>codeToMsg</title>
            <text x="102" y="521.5"
                font-family="monospace" font-size="13" fill="#222">
                <tspan x="102" y="521.5">codeToMsg</tspan>
            </text>
                   
                   
                </g>
                <g>
                   <rect x="50" y="550"
            width="178.2" height="30"
            rx="3" ry="3"
            style="fill:#90caf9; stroke:#444; stroke-width:1" />
                   <title>let app = express()</title>
            <text x="65" y="570"
                font-family="monospace" font-size="13" fill="#222">
                <tspan x="65" y="570">let app = express()</tspan>
            </text>
                   
                   
                </g>
                <g>
                   <rect x="50" y="598.5"
            width="396.59999999999997" height="30"
            rx="2" ry="2"
            style="fill:#C5E1A5; stroke:#444; stroke-width:1" />
                   <title>app.set(&apos;views&apos;, path.join(__dirname, &apos;views&apos;))</title>
            <text x="65" y="618.5"
                font-family="monospace" font-size="13" fill="#222">
                <tspan x="65" y="618.5">app.set(&apos;views&apos;, path.join(__dirname, &apos;views&apos;))</tspan>
            </text>
                   
                   
                </g>
                <g>
                   <rect x="50" y="647"
            width="256.2" height="30"
            rx="2" ry="2"
            style="fill:#C5E1A5; stroke:#444; stroke-width:1" />
                   <title>app.set(&apos;view engine&apos;, &apos;pug&apos;)</title>
            <text x="65" y="667"
                font-family="monospace" font-size="13" fill="#222">
                <tspan x="65" y="667">app.set(&apos;view engine&apos;, &apos;pug&apos;)</tspan>
            </text>
                   
                   
                </g>
                <g>
                   <rect x="50" y="695.5"
            width="443.4" height="30"
            rx="2" ry="2"
            style="fill:#C5E1A5; stroke:#444; stroke-width:1" />
                   <title>app.use(favicon(path.join(__dirname, &apos;public/img&apos;, &apos;favicon.ico&apos;)))</title>
            <text x="65" y="715.5"
                font-family="monospace" font-size="13" fill="#222">
                <tspan x="65" y="715.5">app.use(favicon(path.join(__dirname, &apos;public/img&apos;,...</tspan>
            </text>
                   
                   
                </g>
                <g>
                   <rect x="50" y="744"
            width="201.6" height="30"
            rx="2" ry="2"
            style="fill:#C5E1A5; stroke:#444; stroke-width:1" />
                   <title>app.use(logger(&apos;dev&apos;))</title>
            <text x="65" y="764"
                font-family="monospace" font-size="13" fill="#222">
                <tspan x="65" y="764">app.use(logger(&apos;dev&apos;))</tspan>
            </text>
                   
                   
                </g>
                <g>
                   <rect x="50" y="792.5"
            width="232.79999999999998" height="30"
            rx="2" ry="2"
            style="fill:#C5E1A5; stroke:#444; stroke-width:1" />
                   <title>app.use(bodyParser.json())</title>
            <text x="65" y="812.5"
                font-family="monospace" font-size="13" fill="#222">
                <tspan x="65" y="812.5">app.use(bodyParser.json())</tspan>
            </text>
                   
                   
                </g>
                <g>
                   <rect x="50" y="841"
            width="427.8" height="30"
            rx="2" ry="2"
            style="fill:#C5E1A5; stroke:#444; stroke-width:1" />
                   <title>app.use(bodyParser.urlencoded({
  extended: true
}))</title>
            <text x="65" y="861"
                font-family="monospace" font-size="13" fill="#222">
                <tspan x="65" y="861">app.use(bodyParser.urlencoded({
  extended: true
}...</tspan>
            </text>
                   
                   
                </g>
                <g>
                   <rect x="87" y="889.5"
            width="53.4" height="30"
            rx="3" ry="3"
            style="fill:#90caf9; stroke:#444; stroke-width:1" />
                   <title>{*}</title>
            <text x="102" y="909.5"
                font-family="monospace" font-size="13" fill="#222">
                <tspan x="102" y="909.5">{*}</tspan>
            </text>
                   
                   
                </g>
                <g>
                   <rect x="124" y="938"
            width="139.2" height="30"
            rx="2" ry="2"
            style="fill:#90caf9; stroke:#444; stroke-width:1" />
                   <title>extended: true</title>
            <text x="139" y="958"
                font-family="monospace" font-size="13" fill="#222">
                <tspan x="139" y="958">extended: true</tspan>
            </text>
                   
                   
                </g>
                <g>
                   <rect x="50" y="986.5"
            width="209.4" height="30"
            rx="2" ry="2"
            style="fill:#C5E1A5; stroke:#444; stroke-width:1" />
                   <title>app.use(cookieParser())</title>
            <text x="65" y="1006.5"
                font-family="monospace" font-size="13" fill="#222">
                <tspan x="65" y="1006.5">app.use(cookieParser())</tspan>
            </text>
                   
                   
                </g>
                <g>
                   <rect x="50" y="1035"
            width="443.4" height="30"
            rx="2" ry="2"
            style="fill:#C5E1A5; stroke:#444; stroke-width:1" />
                   <title>app.use(express.static(path.join(__dirname, &apos;public&apos;)))</title>
            <text x="65" y="1055"
                font-family="monospace" font-size="13" fill="#222">
                <tspan x="65" y="1055">app.use(express.static(path.join(__dirname, &apos;publi...</tspan>
            </text>
                   
                   
                </g>
                <g>
                   <rect x="50" y="1083.5"
            width="201.6" height="30"
            rx="2" ry="2"
            style="fill:#C5E1A5; stroke:#444; stroke-width:1" />
                   <title>app.set(&apos;trust proxy&apos;)</title>
            <text x="65" y="1103.5"
                font-family="monospace" font-size="13" fill="#222">
                <tspan x="65" y="1103.5">app.set(&apos;trust proxy&apos;)</tspan>
            </text>
                   
                   
                </g>
                <g>
                   <rect x="50" y="1132"
            width="178.2" height="30"
            rx="2" ry="2"
            style="fill:#C5E1A5; stroke:#444; stroke-width:1" />
                   <title>app.use(&apos;/&apos;, index)</title>
            <text x="65" y="1152"
                font-family="monospace" font-size="13" fill="#222">
                <tspan x="65" y="1152">app.use(&apos;/&apos;, index)</tspan>
            </text>
                   
                   
                </g>
                <g>
                   <rect x="50" y="1180.5"
            width="443.4" height="30"
            rx="3" ry="3"
            style="fill:#90caf9; stroke:#444; stroke-width:1" />
                   <title>let env = process.argv[2] || process.env.NODE_ENV || &apos;development&apos;</title>
            <text x="65" y="1200.5"
                font-family="monospace" font-size="13" fill="#222">
                <tspan x="65" y="1200.5">let env = process.argv[2] || process.env.NODE_ENV ...</tspan>
            </text>
                   
                   
                </g><g>
            <rect x="80" y="1244"
            width="153.6" height="30"
            rx="3" ry="3"
            style="fill:#ce93d8; stroke:#444; stroke-width:1" />                
            <polygon points="50,1259 80,1229 110,1259 80,1289"
            style="fill:#ce93d8; stroke:#444; stroke-width:1" />
            <title>switch (env)</title>
            <text x="125" y="1264"
                font-family="monospace" font-size="13" fill="#222">
                <tspan x="125" y="1264">switch (env)</tspan>
            </text>
            
            <text x="72.2" y="1264"
        font-family="monospace" font-size="13" fill="#222">if</text> <text x="87.8" y="1290.95"
        font-family="monospace" font-size="13" fill="#222">+</text> 
        </g>
                <g>
                   <rect x="100" y="1299"
            width="178.2" height="30"
            rx="2" ry="2"
            style="fill:#ce93d8; stroke:#444; stroke-width:1" />
                   <title>case &apos;development&apos;:</title>
            <text x="115" y="1319"
                font-family="monospace" font-size="13" fill="#222">
                <tspan x="115" y="1319">case &apos;development&apos;:</tspan>
            </text>
                   
                   
                </g>
                <g>
                   <rect x="137" y="1347.5"
            width="271.79999999999995" height="30"
            rx="2" ry="2"
            style="fill:#C5E1A5; stroke:#444; stroke-width:1" />
                   <title>console.log(&apos;Development mode&apos;)</title>
            <text x="152" y="1367.5"
                font-family="monospace" font-size="13" fill="#222">
                <tspan x="152" y="1367.5">console.log(&apos;Development mode&apos;)</tspan>
            </text>
                   
                   
                </g>
                <g>
                   <rect x="137" y="1396"
            width="123.6" height="30"
            rx="2" ry="2"
            style="fill:#C5E1A5; stroke:#444; stroke-width:1" />
                   <title>app.use(*())</title>
            <text x="152" y="1416"
                font-family="monospace" font-size="13" fill="#222">
                <tspan x="152" y="1416">app.use(*())</tspan>
            </text>
                   
                   
                </g>
            <g>
                <rect x="174" y="1444.5"
            width="237.2" height="30"
            style="fill:#a5d6a7; stroke:#444; stroke-width:1" />
                    
                <line x1="184" y1="1444.5" x2="184" y2="1474.5"
                style="fill:#a5d6a7; stroke:#444; stroke-width:1" />
                <line x1="401.2" y1="1444.5" x2="401.2" y2="1474.5"
                style="fill:#a5d6a7; stroke:#444; stroke-width:1" />
             
                <title>(err, req, res, next) =&gt;</title>
            <text x="199" y="1464.5"
                font-family="monospace" font-size="13" fill="#222">
                <tspan x="199" y="1464.5">(err, req, res, next) =&gt;</tspan>
            </text>
                
            </g>
                <g>
                   <rect x="211" y="1493"
            width="256.2" height="30"
            rx="2" ry="2"
            style="fill:#C5E1A5; stroke:#444; stroke-width:1" />
                   <title>res.status(err.status || 500)</title>
            <text x="226" y="1513"
                font-family="monospace" font-size="13" fill="#222">
                <tspan x="226" y="1513">res.status(err.status || 500)</tspan>
            </text>
                   
                   
                </g>
                <g>
                   <rect x="211" y="1541.5"
            width="217.2" height="30"
            rx="2" ry="2"
            style="fill:#C5E1A5; stroke:#444; stroke-width:1" />
                   <title>res.render(&apos;error&apos;, {*})</title>
            <text x="226" y="1561.5"
                font-family="monospace" font-size="13" fill="#222">
                <tspan x="226" y="1561.5">res.render(&apos;error&apos;, {*})</tspan>
            </text>
                   
                   
                </g>
                <g>
                   <rect x="248" y="1590"
            width="53.4" height="30"
            rx="3" ry="3"
            style="fill:#90caf9; stroke:#444; stroke-width:1" />
                   <title>{*}</title>
            <text x="263" y="1610"
                font-family="monospace" font-size="13" fill="#222">
                <tspan x="263" y="1610">{*}</tspan>
            </text>
                   
                   
                </g>
                <g>
                   <rect x="285" y="1638.5"
            width="186" height="30"
            rx="2" ry="2"
            style="fill:#90caf9; stroke:#444; stroke-width:1" />
                   <title>message: err.message</title>
            <text x="300" y="1658.5"
                font-family="monospace" font-size="13" fill="#222">
                <tspan x="300" y="1658.5">message: err.message</tspan>
            </text>
                   
                   
                </g>
                <g>
                   <rect x="285" y="1687"
            width="108" height="30"
            rx="2" ry="2"
            style="fill:#90caf9; stroke:#444; stroke-width:1" />
                   <title>error: err</title>
            <text x="300" y="1707"
                font-family="monospace" font-size="13" fill="#222">
                <tspan x="300" y="1707">error: err</tspan>
            </text>
                   
                   
                </g>
            <g>
                <rect x="137" y="1735.5"
            width="69" height="30"
            rx="2" ry="2"
            style="fill:#90caf9; stroke:#444; stroke-width:1" />
                
                <line x1="206" y1="1745.5" x2="211" y2="1745.5"
                style="fill:#ce93d8; stroke:#444; stroke-width:1" />
                
                <line x1="206" y1="1755.5" x2="211" y2="1755.5"
                style="fill:#ce93d8; stroke:#444; stroke-width:1" />

                <path d="M211, 1736.5 L227, 1750.5 L211, 1764.5 Z" 
        fill="#ce93d8" stroke="#444" stroke-width="1" />
                             
                <title>break</title>
            <text x="152" y="1755.5"
                font-family="monospace" font-size="13" fill="#222">
                <tspan x="152" y="1755.5">break</tspan>
            </text>
                
            </g>
                <g>
                   <rect x="100" y="1784"
            width="170.4" height="30"
            rx="2" ry="2"
            style="fill:#ce93d8; stroke:#444; stroke-width:1" />
                   <title>case &apos;production&apos;:</title>
            <text x="115" y="1804"
                font-family="monospace" font-size="13" fill="#222">
                <tspan x="115" y="1804">case &apos;production&apos;:</tspan>
            </text>
                   
                   
                </g>
                <g>
                   <rect x="137" y="1832.5"
            width="264" height="30"
            rx="2" ry="2"
            style="fill:#C5E1A5; stroke:#444; stroke-width:1" />
                   <title>console.log(&apos;Production mode&apos;)</title>
            <text x="152" y="1852.5"
                font-family="monospace" font-size="13" fill="#222">
                <tspan x="152" y="1852.5">console.log(&apos;Production mode&apos;)</tspan>
            </text>
                   
                   
                </g>
                <g>
                   <rect x="137" y="1881"
            width="123.6" height="30"
            rx="2" ry="2"
            style="fill:#C5E1A5; stroke:#444; stroke-width:1" />
                   <title>app.use(*())</title>
            <text x="152" y="1901"
                font-family="monospace" font-size="13" fill="#222">
                <tspan x="152" y="1901">app.use(*())</tspan>
            </text>
                   
                   
                </g>
            <g>
                <rect x="174" y="1929.5"
            width="151.39999999999998" height="30"
            style="fill:#a5d6a7; stroke:#444; stroke-width:1" />
                    
                <line x1="184" y1="1929.5" x2="184" y2="1959.5"
                style="fill:#a5d6a7; stroke:#444; stroke-width:1" />
                <line x1="315.4" y1="1929.5" x2="315.4" y2="1959.5"
                style="fill:#a5d6a7; stroke:#444; stroke-width:1" />
             
                <title>(req, res) =&gt;</title>
            <text x="199" y="1949.5"
                font-family="monospace" font-size="13" fill="#222">
                <tspan x="199" y="1949.5">(req, res) =&gt;</tspan>
            </text>
                
            </g>
                <g>
                   <rect x="211" y="1978"
            width="295.2" height="30"
            rx="2" ry="2"
            style="fill:#C5E1A5; stroke:#444; stroke-width:1" />
                   <title>console.log(&apos;status:&apos;, req.status)</title>
            <text x="226" y="1998"
                font-family="monospace" font-size="13" fill="#222">
                <tspan x="226" y="1998">console.log(&apos;status:&apos;, req.status)</tspan>
            </text>
                   
                   
                </g>
                <g>
                   <rect x="211" y="2026.5"
            width="170.4" height="30"
            rx="2" ry="2"
            style="fill:#C5E1A5; stroke:#444; stroke-width:1" />
                   <title>httpPage(404, res)</title>
            <text x="226" y="2046.5"
                font-family="monospace" font-size="13" fill="#222">
                <tspan x="226" y="2046.5">httpPage(404, res)</tspan>
            </text>
                   
                   
                </g>
                <g>
                   <rect x="137" y="2075"
            width="123.6" height="30"
            rx="2" ry="2"
            style="fill:#C5E1A5; stroke:#444; stroke-width:1" />
                   <title>app.use(*())</title>
            <text x="152" y="2095"
                font-family="monospace" font-size="13" fill="#222">
                <tspan x="152" y="2095">app.use(*())</tspan>
            </text>
                   
                   
                </g>
            <g>
                <rect x="174" y="2123.5"
            width="237.2" height="30"
            style="fill:#a5d6a7; stroke:#444; stroke-width:1" />
                    
                <line x1="184" y1="2123.5" x2="184" y2="2153.5"
                style="fill:#a5d6a7; stroke:#444; stroke-width:1" />
                <line x1="401.2" y1="2123.5" x2="401.2" y2="2153.5"
                style="fill:#a5d6a7; stroke:#444; stroke-width:1" />
             
                <title>(err, req, res, next) =&gt;</title>
            <text x="199" y="2143.5"
                font-family="monospace" font-size="13" fill="#222">
                <tspan x="199" y="2143.5">(err, req, res, next) =&gt;</tspan>
            </text>
                
            </g>
                <g>
                   <rect x="211" y="2172"
            width="256.2" height="30"
            rx="2" ry="2"
            style="fill:#C5E1A5; stroke:#444; stroke-width:1" />
                   <title>res.status(err.status || 500)</title>
            <text x="226" y="2192"
                font-family="monospace" font-size="13" fill="#222">
                <tspan x="226" y="2192">res.status(err.status || 500)</tspan>
            </text>
                   
                   
                </g>
                <g>
                   <rect x="211" y="2220.5"
            width="357.59999999999997" height="30"
            rx="2" ry="2"
            style="fill:#C5E1A5; stroke:#444; stroke-width:1" />
                   <title>console.log(`Error status: ${err.status}`)</title>
            <text x="226" y="2240.5"
                font-family="monospace" font-size="13" fill="#222">
                <tspan x="226" y="2240.5">console.log(`Error status: ${err.status}`)</tspan>
            </text>
                   
                   
                </g>
                <g>
                   <rect x="211" y="2269"
            width="217.2" height="30"
            rx="3" ry="3"
            style="fill:#90caf9; stroke:#444; stroke-width:1" />
                   <title>let msg = codeToMsg(err)</title>
            <text x="226" y="2289"
                font-family="monospace" font-size="13" fill="#222">
                <tspan x="226" y="2289">let msg = codeToMsg(err)</tspan>
            </text>
                   
                   
                </g>
                <g>
                   <rect x="211" y="2317.5"
            width="209.4" height="30"
            rx="2" ry="2"
            style="fill:#C5E1A5; stroke:#444; stroke-width:1" />
                   <title>res.render(&apos;page&apos;, {*})</title>
            <text x="226" y="2337.5"
                font-family="monospace" font-size="13" fill="#222">
                <tspan x="226" y="2337.5">res.render(&apos;page&apos;, {*})</tspan>
            </text>
                   
                   
                </g>
                <g>
                   <rect x="248" y="2366"
            width="53.4" height="30"
            rx="3" ry="3"
            style="fill:#90caf9; stroke:#444; stroke-width:1" />
                   <title>{*}</title>
            <text x="263" y="2386"
                font-family="monospace" font-size="13" fill="#222">
                <tspan x="263" y="2386">{*}</tspan>
            </text>
                   
                   
                </g>
                <g>
                   <rect x="285" y="2414.5"
            width="443.4" height="30"
            rx="2" ry="2"
            style="fill:#90caf9; stroke:#444; stroke-width:1" />
                   <title>data: `${msg}&lt;br&gt;&lt;em&gt;Error ${err.status} on ${err.path}&lt;/em&gt;`</title>
            <text x="300" y="2434.5"
                font-family="monospace" font-size="13" fill="#222">
                <tspan x="300" y="2434.5">data: `${msg}&lt;br&gt;&lt;em&gt;Error ${err.status} on ${err....</tspan>
            </text>
                   
                   
                </g>
                <g>
                   <rect x="322" y="2463"
            width="53.4" height="30"
            rx="3" ry="3"
            style="fill:#90caf9; stroke:#444; stroke-width:1" />
                   <title>msg</title>
            <text x="337" y="2483"
                font-family="monospace" font-size="13" fill="#222">
                <tspan x="337" y="2483">msg</tspan>
            </text>
                   
                   
                </g>
            <g>
                <rect x="137" y="2511.5"
            width="69" height="30"
            rx="2" ry="2"
            style="fill:#90caf9; stroke:#444; stroke-width:1" />
                
                <line x1="206" y1="2521.5" x2="211" y2="2521.5"
                style="fill:#ce93d8; stroke:#444; stroke-width:1" />
                
                <line x1="206" y1="2531.5" x2="211" y2="2531.5"
                style="fill:#ce93d8; stroke:#444; stroke-width:1" />

                <path d="M211, 2512.5 L227, 2526.5 L211, 2540.5 Z" 
        fill="#ce93d8" stroke="#444" stroke-width="1" />
                             
                <title>break</title>
            <text x="152" y="2531.5"
                font-family="monospace" font-size="13" fill="#222">
                <tspan x="152" y="2531.5">break</tspan>
            </text>
                
            </g>
                <g>
                   <rect x="100" y="2560"
            width="92.4" height="30"
            rx="2" ry="2"
            style="fill:#ce93d8; stroke:#444; stroke-width:1" />
                   <title>default:</title>
            <text x="115" y="2580"
                font-family="monospace" font-size="13" fill="#222">
                <tspan x="115" y="2580">default:</tspan>
            </text>
                   
                   
                </g>
                <g>
                   <rect x="137" y="2608.5"
            width="53.4" height="30"
            rx="3" ry="3"
            style="fill:#90caf9; stroke:#444; stroke-width:1" />
                   <title>env</title>
            <text x="152" y="2628.5"
                font-family="monospace" font-size="13" fill="#222">
                <tspan x="152" y="2628.5">env</tspan>
            </text>
                   
                   
                </g>
                <g>
                   <rect x="137" y="2657"
            width="303" height="30"
            rx="2" ry="2"
            style="fill:#C5E1A5; stroke:#444; stroke-width:1" />
                   <title>console.log(`Unknown mode: ${env}`)</title>
            <text x="152" y="2677"
                font-family="monospace" font-size="13" fill="#222">
                <tspan x="152" y="2677">console.log(`Unknown mode: ${env}`)</tspan>
            </text>
                   
                   
                </g>
                <g>
                   <rect x="50" y="2705.5"
            width="186" height="30"
            rx="3" ry="3"
            style="fill:#90caf9; stroke:#444; stroke-width:1" />
                   <title>module.exports = app</title>
            <text x="65" y="2725.5"
                font-family="monospace" font-size="13" fill="#222">
                <tspan x="65" y="2725.5">module.exports = app</tspan>
            </text>
                   
                   
                </g>
            <g>
               <rect x="25" y="13.75"
            width="216.6" height="24"
            style="fill:#fff59d; stroke:#444; stroke-width:1" />
               <circle cx="25" cy="25" r="15"
        style="fill:#fff59d; stroke:#444; stroke-width:1" />
               <title>Program: source module</title>
            <text x="55" y="30"
                font-family="monospace" font-size="13" fill="#222">
                <tspan x="55" y="30">Program: source module</tspan>
            </text>
            </g>
            <g>
               <path d="M25, 40 L25 76 Q25 80
                29 80
                L42 80 "
        style="fill:none; stroke:#444; stroke-width:1" />
               <path d="M42, 77 L50, 80 L42, 83 Z" 
        fill="#333" />
            </g>
            <g>
               <path d="M25, 40 L25 124.5 Q25 128.5
                29 128.5
                L42 128.5 "
        style="fill:none; stroke:#444; stroke-width:1" />
               <path d="M42, 125.5 L50, 128.5 L42, 131.5 Z" 
        fill="#333" />
            </g>
            <g>
               <path d="M25, 40 L25 173 Q25 177
                29 177
                L42 177 "
        style="fill:none; stroke:#444; stroke-width:1" />
               <path d="M42, 174 L50, 177 L42, 180 Z" 
        fill="#333" />
            </g>
            <g>
               <path d="M25, 40 L25 221.5 Q25 225.5
                29 225.5
                L42 225.5 "
        style="fill:none; stroke:#444; stroke-width:1" />
               <path d="M42, 222.5 L50, 225.5 L42, 228.5 Z" 
        fill="#333" />
            </g>
            <g>
               <path d="M25, 40 L25 270 Q25 274
                29 274
                L42 274 "
        style="fill:none; stroke:#444; stroke-width:1" />
               <path d="M42, 271 L50, 274 L42, 277 Z" 
        fill="#333" />
            </g>
            <g>
               <path d="M25, 40 L25 318.5 Q25 322.5
                29 322.5
                L42 322.5 "
        style="fill:none; stroke:#444; stroke-width:1" />
               <path d="M42, 319.5 L50, 322.5 L42, 325.5 Z" 
        fill="#333" />
            </g>
            <g>
               <path d="M25, 40 L25 367 Q25 371
                29 371
                L42 371 "
        style="fill:none; stroke:#444; stroke-width:1" />
               <path d="M42, 368 L50, 371 L42, 374 Z" 
        fill="#333" />
            </g>
            <g>
               <path d="M25, 40 L25 415.5 Q25 419.5
                29 419.5
                L42 419.5 "
        style="fill:none; stroke:#444; stroke-width:1" />
               <path d="M42, 416.5 L50, 419.5 L42, 422.5 Z" 
        fill="#333" />
            </g>
            <g>
               <path d="M68.5, 434.5 L68.5 464 Q68.5 468
                72.5 468
                L87 468 "
        style="fill:none; stroke:#444; stroke-width:1" />
               false
            </g>
            <g>
               <path d="M68.5, 434.5 L68.5 512.5 Q68.5 516.5
                72.5 516.5
                L87 516.5 "
        style="fill:none; stroke:#444; stroke-width:1" />
               false
            </g>
            <g>
               <path d="M25, 40 L25 561 Q25 565
                29 565
                L42 565 "
        style="fill:none; stroke:#444; stroke-width:1" />
               <path d="M42, 562 L50, 565 L42, 568 Z" 
        fill="#333" />
            </g>
            <g>
               <path d="M25, 40 L25 609.5 Q25 613.5
                29 613.5
                L42 613.5 "
        style="fill:none; stroke:#444; stroke-width:1" />
               <path d="M42, 610.5 L50, 613.5 L42, 616.5 Z" 
        fill="#333" />
            </g>
            <g>
               <path d="M25, 40 L25 658 Q25 662
                29 662
                L42 662 "
        style="fill:none; stroke:#444; stroke-width:1" />
               <path d="M42, 659 L50, 662 L42, 665 Z" 
        fill="#333" />
            </g>
            <g>
               <path d="M25, 40 L25 706.5 Q25 710.5
                29 710.5
                L42 710.5 "
        style="fill:none; stroke:#444; stroke-width:1" />
               <path d="M42, 707.5 L50, 710.5 L42, 713.5 Z" 
        fill="#333" />
            </g>
            <g>
               <path d="M25, 40 L25 755 Q25 759
                29 759
                L42 759 "
        style="fill:none; stroke:#444; stroke-width:1" />
               <path d="M42, 756 L50, 759 L42, 762 Z" 
        fill="#333" />
            </g>
            <g>
               <path d="M25, 40 L25 803.5 Q25 807.5
                29 807.5
                L42 807.5 "
        style="fill:none; stroke:#444; stroke-width:1" />
               <path d="M42, 804.5 L50, 807.5 L42, 810.5 Z" 
        fill="#333" />
            </g>
            <g>
               <path d="M25, 40 L25 852 Q25 856
                29 856
                L42 856 "
        style="fill:none; stroke:#444; stroke-width:1" />
               <path d="M42, 853 L50, 856 L42, 859 Z" 
        fill="#333" />
            </g>
            <g>
               <path d="M68.5, 871 L68.5 900.5 Q68.5 904.5
                72.5 904.5
                L79 904.5 "
        style="fill:none; stroke:#444; stroke-width:1" />
               <path d="M79, 901.5 L87, 904.5 L79, 907.5 Z" 
        fill="#333" />
            </g>
            <g>
               <path d="M105.5, 919.5 L105.5 949 Q105.5 953
                109.5 953
                L124 953 "
        style="fill:none; stroke:#444; stroke-width:1" />
               false
            </g>
            <g>
               <path d="M25, 40 L25 997.5 Q25 1001.5
                29 1001.5
                L42 1001.5 "
        style="fill:none; stroke:#444; stroke-width:1" />
               <path d="M42, 998.5 L50, 1001.5 L42, 1004.5 Z" 
        fill="#333" />
            </g>
            <g>
               <path d="M25, 40 L25 1046 Q25 1050
                29 1050
                L42 1050 "
        style="fill:none; stroke:#444; stroke-width:1" />
               <path d="M42, 1047 L50, 1050 L42, 1053 Z" 
        fill="#333" />
            </g>
            <g>
               <path d="M25, 40 L25 1094.5 Q25 1098.5
                29 1098.5
                L42 1098.5 "
        style="fill:none; stroke:#444; stroke-width:1" />
               <path d="M42, 1095.5 L50, 1098.5 L42, 1101.5 Z" 
        fill="#333" />
            </g>
            <g>
               <path d="M25, 40 L25 1143 Q25 1147
                29 1147
                L42 1147 "
        style="fill:none; stroke:#444; stroke-width:1" />
               <path d="M42, 1144 L50, 1147 L42, 1150 Z" 
        fill="#333" />
            </g>
            <g>
               <path d="M25, 40 L25 1191.5 Q25 1195.5
                29 1195.5
                L42 1195.5 "
        style="fill:none; stroke:#444; stroke-width:1" />
               <path d="M42, 1192.5 L50, 1195.5 L42, 1198.5 Z" 
        fill="#333" />
            </g>
            <g>
               <path d="M25, 40 L25 1255 Q25 1259
                29 1259
                L42 1259 "
        style="fill:none; stroke:#444; stroke-width:1" />
               <path d="M42, 1256 L50, 1259 L42, 1262 Z" 
        fill="#333" />
            </g>
            <g>
               <path d="M80, 1289 L80 1310 Q80 1314
                84 1314
                L92 1314 "
        style="fill:none; stroke:#444; stroke-width:1" />
               <path d="M92, 1311 L100, 1314 L92, 1317 Z" 
        fill="#333" />
            </g>
            <g>
               <path d="M118.5, 1329 L118.5 1358.5 Q118.5 1362.5
                122.5 1362.5
                L129 1362.5 "
        style="fill:none; stroke:#444; stroke-width:1" />
               <path d="M129, 1359.5 L137, 1362.5 L129, 1365.5 Z" 
        fill="#333" />
            </g>
            <g>
               <path d="M118.5, 1329 L118.5 1407 Q118.5 1411
                122.5 1411
                L129 1411 "
        style="fill:none; stroke:#444; stroke-width:1" />
               <path d="M129, 1408 L137, 1411 L129, 1414 Z" 
        fill="#333" />
            </g>
            <g>
               <path d="M155.5, 1426 L155.5 1455.5 Q155.5 1459.5
                159.5 1459.5
                L174 1459.5 "
        style="fill:none; stroke:#444; stroke-width:1" />
               false
            </g>
            <g>
               <path d="M192.5, 1474.5 L192.5 1504 Q192.5 1508
                196.5 1508
                L203 1508 "
        style="fill:none; stroke:#444; stroke-width:1" />
               <path d="M203, 1505 L211, 1508 L203, 1511 Z" 
        fill="#333" />
            </g>
            <g>
               <path d="M192.5, 1474.5 L192.5 1552.5 Q192.5 1556.5
                196.5 1556.5
                L203 1556.5 "
        style="fill:none; stroke:#444; stroke-width:1" />
               <path d="M203, 1553.5 L211, 1556.5 L203, 1559.5 Z" 
        fill="#333" />
            </g>
            <g>
               <path d="M229.5, 1571.5 L229.5 1601 Q229.5 1605
                233.5 1605
                L240 1605 "
        style="fill:none; stroke:#444; stroke-width:1" />
               <path d="M240, 1602 L248, 1605 L240, 1608 Z" 
        fill="#333" />
            </g>
            <g>
               <path d="M266.5, 1620 L266.5 1649.5 Q266.5 1653.5
                270.5 1653.5
                L285 1653.5 "
        style="fill:none; stroke:#444; stroke-width:1" />
               false
            </g>
            <g>
               <path d="M266.5, 1620 L266.5 1698 Q266.5 1702
                270.5 1702
                L285 1702 "
        style="fill:none; stroke:#444; stroke-width:1" />
               false
            </g>
            <g>
               <path d="M118.5, 1329 L118.5 1746.5 Q118.5 1750.5
                122.5 1750.5
                L129 1750.5 "
        style="fill:none; stroke:#444; stroke-width:1" />
               <path d="M129, 1747.5 L137, 1750.5 L129, 1753.5 Z" 
        fill="#333" />
            </g>
            <g>
               <path d="M80, 1289 L80 1795 Q80 1799
                84 1799
                L92 1799 "
        style="fill:none; stroke:#444; stroke-width:1" />
               <path d="M92, 1796 L100, 1799 L92, 1802 Z" 
        fill="#333" />
            </g>
            <g>
               <path d="M118.5, 1814 L118.5 1843.5 Q118.5 1847.5
                122.5 1847.5
                L129 1847.5 "
        style="fill:none; stroke:#444; stroke-width:1" />
               <path d="M129, 1844.5 L137, 1847.5 L129, 1850.5 Z" 
        fill="#333" />
            </g>
            <g>
               <path d="M118.5, 1814 L118.5 1892 Q118.5 1896
                122.5 1896
                L129 1896 "
        style="fill:none; stroke:#444; stroke-width:1" />
               <path d="M129, 1893 L137, 1896 L129, 1899 Z" 
        fill="#333" />
            </g>
            <g>
               <path d="M155.5, 1911 L155.5 1940.5 Q155.5 1944.5
                159.5 1944.5
                L174 1944.5 "
        style="fill:none; stroke:#444; stroke-width:1" />
               false
            </g>
            <g>
               <path d="M192.5, 1959.5 L192.5 1989 Q192.5 1993
                196.5 1993
                L203 1993 "
        style="fill:none; stroke:#444; stroke-width:1" />
               <path d="M203, 1990 L211, 1993 L203, 1996 Z" 
        fill="#333" />
            </g>
            <g>
               <path d="M192.5, 1959.5 L192.5 2037.5 Q192.5 2041.5
                196.5 2041.5
                L203 2041.5 "
        style="fill:none; stroke:#444; stroke-width:1" />
               <path d="M203, 2038.5 L211, 2041.5 L203, 2044.5 Z" 
        fill="#333" />
            </g>
            <g>
               <path d="M118.5, 1814 L118.5 2086 Q118.5 2090
                122.5 2090
                L129 2090 "
        style="fill:none; stroke:#444; stroke-width:1" />
               <path d="M129, 2087 L137, 2090 L129, 2093 Z" 
        fill="#333" />
            </g>
            <g>
               <path d="M155.5, 2105 L155.5 2134.5 Q155.5 2138.5
                159.5 2138.5
                L174 2138.5 "
        style="fill:none; stroke:#444; stroke-width:1" />
               false
            </g>
            <g>
               <path d="M192.5, 2153.5 L192.5 2183 Q192.5 2187
                196.5 2187
                L203 2187 "
        style="fill:none; stroke:#444; stroke-width:1" />
               <path d="M203, 2184 L211, 2187 L203, 2190 Z" 
        fill="#333" />
            </g>
            <g>
               <path d="M192.5, 2153.5 L192.5 2231.5 Q192.5 2235.5
                196.5 2235.5
                L203 2235.5 "
        style="fill:none; stroke:#444; stroke-width:1" />
               <path d="M203, 2232.5 L211, 2235.5 L203, 2238.5 Z" 
        fill="#333" />
            </g>
            <g>
               <path d="M192.5, 2153.5 L192.5 2280 Q192.5 2284
                196.5 2284
                L203 2284 "
        style="fill:none; stroke:#444; stroke-width:1" />
               <path d="M203, 2281 L211, 2284 L203, 2287 Z" 
        fill="#333" />
            </g>
            <g>
               <path d="M192.5, 2153.5 L192.5 2328.5 Q192.5 2332.5
                196.5 2332.5
                L203 2332.5 "
        style="fill:none; stroke:#444; stroke-width:1" />
               <path d="M203, 2329.5 L211, 2332.5 L203, 2335.5 Z" 
        fill="#333" />
            </g>
            <g>
               <path d="M229.5, 2347.5 L229.5 2377 Q229.5 2381
                233.5 2381
                L240 2381 "
        style="fill:none; stroke:#444; stroke-width:1" />
               <path d="M240, 2378 L248, 2381 L240, 2384 Z" 
        fill="#333" />
            </g>
            <g>
               <path d="M266.5, 2396 L266.5 2425.5 Q266.5 2429.5
                270.5 2429.5
                L285 2429.5 "
        style="fill:none; stroke:#444; stroke-width:1" />
               false
            </g>
            <g>
               <path d="M303.5, 2444.5 L303.5 2474 Q303.5 2478
                307.5 2478
                L314 2478 "
        style="fill:none; stroke:#444; stroke-width:1" />
               <path d="M314, 2475 L322, 2478 L314, 2481 Z" 
        fill="#333" />
            </g>
            <g>
               <path d="M118.5, 1814 L118.5 2522.5 Q118.5 2526.5
                122.5 2526.5
                L129 2526.5 "
        style="fill:none; stroke:#444; stroke-width:1" />
               <path d="M129, 2523.5 L137, 2526.5 L129, 2529.5 Z" 
        fill="#333" />
            </g>
            <g>
               <path d="M80, 1289 L80 2571 Q80 2575
                84 2575
                L92 2575 "
        style="fill:none; stroke:#444; stroke-width:1" />
               <path d="M92, 2572 L100, 2575 L92, 2578 Z" 
        fill="#333" />
            </g>
            <g>
               <path d="M118.5, 2590 L118.5 2619.5 Q118.5 2623.5
                122.5 2623.5
                L129 2623.5 "
        style="fill:none; stroke:#444; stroke-width:1" />
               <path d="M129, 2620.5 L137, 2623.5 L129, 2626.5 Z" 
        fill="#333" />
            </g>
            <g>
               <path d="M118.5, 2590 L118.5 2668 Q118.5 2672
                122.5 2672
                L129 2672 "
        style="fill:none; stroke:#444; stroke-width:1" />
               <path d="M129, 2669 L137, 2672 L129, 2675 Z" 
        fill="#333" />
            </g>
            <g>
               <path d="M25, 40 L25 2716.5 Q25 2720.5
                29 2720.5
                L42 2720.5 "
        style="fill:none; stroke:#444; stroke-width:1" />
               <path d="M42, 2717.5 L50, 2720.5 L42, 2723.5 Z" 
        fill="#333" />
            </g>
            </svg>