<!DOCTYPE svg PUBLIC "-//W3C//DTD SVG 1.1//EN" "http://www.w3.org/Graphics/SVG/1.1/DTD/svg11.dtd">
                <svg xmlns="http://www.w3.org/2000/svg" xmlns:xlink="http://www.w3.org/1999/xlink" 
                width="630" height="896">
                
                <g>
                   <rect x="50" y="65"
            width="186" height="30"
            rx="3" ry="3"
            style="fill:#90caf9; stroke:#444; stroke-width:1" />
                   <title>module.exports = {*}</title>
            <text x="65" y="85"
                font-family="monospace" font-size="13" fill="#222">
                <tspan x="65" y="85">module.exports = {*}</tspan>
            </text>
                   
                   
                </g>
                <g>
                   <rect x="87" y="113.5"
            width="404.4" height="30"
            rx="2" ry="2"
            style="fill:#90caf9; stroke:#444; stroke-width:1" />
                   <title>db: &apos;mongodb://app:m3000np@localhost:27017/menp&apos;</title>
            <text x="102" y="133.5"
                font-family="monospace" font-size="13" fill="#222">
                <tspan x="102" y="133.5">db: &apos;mongodb://app:m3000np@localhost:27017/menp&apos;</tspan>
            </text>
                   
                   
                </g>
                <g>
                   <rect x="87" y="162"
            width="100.2" height="30"
            rx="2" ry="2"
            style="fill:#90caf9; stroke:#444; stroke-width:1" />
                   <title>smtp: {*}</title>
            <text x="102" y="182"
                font-family="monospace" font-size="13" fill="#222">
                <tspan x="102" y="182">smtp: {*}</tspan>
            </text>
                   
                   
                </g>
                <g>
                   <rect x="124" y="210.5"
            width="178.2" height="30"
            rx="2" ry="2"
            style="fill:#90caf9; stroke:#444; stroke-width:1" />
                   <title>service: &apos;SendGrid&apos;</title>
            <text x="139" y="230.5"
                font-family="monospace" font-size="13" fill="#222">
                <tspan x="139" y="230.5">service: &apos;SendGrid&apos;</tspan>
            </text>
                   
                   
                </g>
                <g>
                   <rect x="124" y="259"
            width="100.2" height="30"
            rx="2" ry="2"
            style="fill:#90caf9; stroke:#444; stroke-width:1" />
                   <title>auth: {*}</title>
            <text x="139" y="279"
                font-family="monospace" font-size="13" fill="#222">
                <tspan x="139" y="279">auth: {*}</tspan>
            </text>
                   
                   
                </g>
                <g>
                   <rect x="161" y="307.5"
            width="170.4" height="30"
            rx="2" ry="2"
            style="fill:#90caf9; stroke:#444; stroke-width:1" />
                   <title>user: &apos;Berkmann18&apos;</title>
            <text x="176" y="327.5"
                font-family="monospace" font-size="13" fill="#222">
                <tspan x="176" y="327.5">user: &apos;Berkmann18&apos;</tspan>
            </text>
                   
                   
                </g>
                <g>
                   <rect x="161" y="356"
            width="162.6" height="30"
            rx="2" ry="2"
            style="fill:#90caf9; stroke:#444; stroke-width:1" />
                   <title>pass: &apos;Maxie1996&apos;</title>
            <text x="176" y="376"
                font-family="monospace" font-size="13" fill="#222">
                <tspan x="176" y="376">pass: &apos;Maxie1996&apos;</tspan>
            </text>
                   
                   
                </g>
                <g>
                   <rect x="87" y="404.5"
            width="108" height="30"
            rx="2" ry="2"
            style="fill:#90caf9; stroke:#444; stroke-width:1" />
                   <title>email: {*}</title>
            <text x="102" y="424.5"
                font-family="monospace" font-size="13" fill="#222">
                <tspan x="102" y="424.5">email: {*}</tspan>
            </text>
                   
                   
                </g>
                <g>
                   <rect x="124" y="453"
            width="217.2" height="30"
            rx="2" ry="2"
            style="fill:#90caf9; stroke:#444; stroke-width:1" />
                   <title>from: &apos;noreply@menp.com&apos;</title>
            <text x="139" y="473"
                font-family="monospace" font-size="13" fill="#222">
                <tspan x="139" y="473">from: &apos;noreply@menp.com&apos;</tspan>
            </text>
                   
                   
                </g>
                <g>
                   <rect x="124" y="501.5"
            width="256.2" height="30"
            rx="2" ry="2"
            style="fill:#90caf9; stroke:#444; stroke-width:1" />
                   <title>to: &apos;maxieberkmann@gmail.com&apos;</title>
            <text x="139" y="521.5"
                font-family="monospace" font-size="13" fill="#222">
                <tspan x="139" y="521.5">to: &apos;maxieberkmann@gmail.com&apos;</tspan>
            </text>
                   
                   
                </g>
                <g>
                   <rect x="87" y="550"
            width="139.2" height="30"
            rx="2" ry="2"
            style="fill:#90caf9; stroke:#444; stroke-width:1" />
                   <title>sgOptions: {*}</title>
            <text x="102" y="570"
                font-family="monospace" font-size="13" fill="#222">
                <tspan x="102" y="570">sgOptions: {*}</tspan>
            </text>
                   
                   
                </g>
                <g>
                   <rect x="124" y="598.5"
            width="100.2" height="30"
            rx="2" ry="2"
            style="fill:#90caf9; stroke:#444; stroke-width:1" />
                   <title>auth: {*}</title>
            <text x="139" y="618.5"
                font-family="monospace" font-size="13" fill="#222">
                <tspan x="139" y="618.5">auth: {*}</tspan>
            </text>
                   
                   
                </g>
                <g>
                   <rect x="161" y="647"
            width="443.4" height="30"
            rx="2" ry="2"
            style="fill:#90caf9; stroke:#444; stroke-width:1" />
                   <title>api_key: &apos;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&apos;</title>
            <text x="176" y="667"
                font-family="monospace" font-size="13" fill="#222">
                <tspan x="176" y="667">api_key: &apos;SG.npCsg0CsQwCV470hi_HAfQ.teAD-29CUzc1dK...</tspan>
            </text>
                   
                   
                </g>
                <g>
                   <rect x="87" y="695.5"
            width="162.6" height="30"
            rx="2" ry="2"
            style="fill:#90caf9; stroke:#444; stroke-width:1" />
                   <title>nexmoOptions: {*}</title>
            <text x="102" y="715.5"
                font-family="monospace" font-size="13" fill="#222">
                <tspan x="102" y="715.5">nexmoOptions: {*}</tspan>
            </text>
                   
                   
                </g>
                <g>
                   <rect x="124" y="744"
            width="170.4" height="30"
            rx="2" ry="2"
            style="fill:#90caf9; stroke:#444; stroke-width:1" />
                   <title>apiKey: &apos;341208b6&apos;</title>
            <text x="139" y="764"
                font-family="monospace" font-size="13" fill="#222">
                <tspan x="139" y="764">apiKey: &apos;341208b6&apos;</tspan>
            </text>
                   
                   
                </g>
                <g>
                   <rect x="124" y="792.5"
            width="256.2" height="30"
            rx="2" ry="2"
            style="fill:#90caf9; stroke:#444; stroke-width:1" />
                   <title>apiSecret: &apos;325d930a9c003d9c&apos;</title>
            <text x="139" y="812.5"
                font-family="monospace" font-size="13" fill="#222">
                <tspan x="139" y="812.5">apiSecret: &apos;325d930a9c003d9c&apos;</tspan>
            </text>
                   
                   
                </g>
                <g>
                   <rect x="124" y="841"
            width="123.6" height="30"
            rx="2" ry="2"
            style="fill:#90caf9; stroke:#444; stroke-width:1" />
                   <title>from: &apos;MENP&apos;</title>
            <text x="139" y="861"
                font-family="monospace" font-size="13" fill="#222">
                <tspan x="139" y="861">from: &apos;MENP&apos;</tspan>
            </text>
                   
                   
                </g>
            <g>
               <rect x="25" y="13.75"
            width="216.6" height="24"
            style="fill:#fff59d; stroke:#444; stroke-width:1" />
               <circle cx="25" cy="25" r="15"
        style="fill:#fff59d; stroke:#444; stroke-width:1" />
               <title>Program: source module</title>
            <text x="55" y="30"
                font-family="monospace" font-size="13" fill="#222">
                <tspan x="55" y="30">Program: source module</tspan>
            </text>
            </g>
            <g>
               <path d="M25, 40 L25 76 Q25 80
                29 80
                L42 80 "
        style="fill:none; stroke:#444; stroke-width:1" />
               <path d="M42, 77 L50, 80 L42, 83 Z" 
        fill="#333" />
            </g>
            <g>
               <path d="M68.5, 95 L68.5 124.5 Q68.5 128.5
                72.5 128.5
                L87 128.5 "
        style="fill:none; stroke:#444; stroke-width:1" />
               false
            </g>
            <g>
               <path d="M68.5, 95 L68.5 173 Q68.5 177
                72.5 177
                L87 177 "
        style="fill:none; stroke:#444; stroke-width:1" />
               false
            </g>
            <g>
               <path d="M105.5, 192 L105.5 221.5 Q105.5 225.5
                109.5 225.5
                L124 225.5 "
        style="fill:none; stroke:#444; stroke-width:1" />
               false
            </g>
            <g>
               <path d="M105.5, 192 L105.5 270 Q105.5 274
                109.5 274
                L124 274 "
        style="fill:none; stroke:#444; stroke-width:1" />
               false
            </g>
            <g>
               <path d="M142.5, 289 L142.5 318.5 Q142.5 322.5
                146.5 322.5
                L161 322.5 "
        style="fill:none; stroke:#444; stroke-width:1" />
               false
            </g>
            <g>
               <path d="M142.5, 289 L142.5 367 Q142.5 371
                146.5 371
                L161 371 "
        style="fill:none; stroke:#444; stroke-width:1" />
               false
            </g>
            <g>
               <path d="M68.5, 95 L68.5 415.5 Q68.5 419.5
                72.5 419.5
                L87 419.5 "
        style="fill:none; stroke:#444; stroke-width:1" />
               false
            </g>
            <g>
               <path d="M105.5, 434.5 L105.5 464 Q105.5 468
                109.5 468
                L124 468 "
        style="fill:none; stroke:#444; stroke-width:1" />
               false
            </g>
            <g>
               <path d="M105.5, 434.5 L105.5 512.5 Q105.5 516.5
                109.5 516.5
                L124 516.5 "
        style="fill:none; stroke:#444; stroke-width:1" />
               false
            </g>
            <g>
               <path d="M68.5, 95 L68.5 561 Q68.5 565
                72.5 565
                L87 565 "
        style="fill:none; stroke:#444; stroke-width:1" />
               false
            </g>
            <g>
               <path d="M105.5, 580 L105.5 609.5 Q105.5 613.5
                109.5 613.5
                L124 613.5 "
        style="fill:none; stroke:#444; stroke-width:1" />
               false
            </g>
            <g>
               <path d="M142.5, 628.5 L142.5 658 Q142.5 662
                146.5 662
                L161 662 "
        style="fill:none; stroke:#444; stroke-width:1" />
               false
            </g>
            <g>
               <path d="M68.5, 95 L68.5 706.5 Q68.5 710.5
                72.5 710.5
                L87 710.5 "
        style="fill:none; stroke:#444; stroke-width:1" />
               false
            </g>
            <g>
               <path d="M105.5, 725.5 L105.5 755 Q105.5 759
                109.5 759
                L124 759 "
        style="fill:none; stroke:#444; stroke-width:1" />
               false
            </g>
            <g>
               <path d="M105.5, 725.5 L105.5 803.5 Q105.5 807.5
                109.5 807.5
                L124 807.5 "
        style="fill:none; stroke:#444; stroke-width:1" />
               false
            </g>
            <g>
               <path d="M105.5, 725.5 L105.5 852 Q105.5 856
                109.5 856
                L124 856 "
        style="fill:none; stroke:#444; stroke-width:1" />
               false
            </g>
            </svg>