<!DOCTYPE svg PUBLIC "-//W3C//DTD SVG 1.1//EN" "http://www.w3.org/Graphics/SVG/1.1/DTD/svg11.dtd">
                <svg xmlns="http://www.w3.org/2000/svg" xmlns:xlink="http://www.w3.org/1999/xlink" 
                width="887" height="2596">
                
            <g>
                <rect x="50" y="80"
            width="237.2" height="30"
            style="fill:#a5d6a7; stroke:#444; stroke-width:1" />
                    
                <line x1="60" y1="80" x2="60" y2="110"
                style="fill:#a5d6a7; stroke:#444; stroke-width:1" />
                <line x1="277.2" y1="80" x2="277.2" y2="110"
                style="fill:#a5d6a7; stroke:#444; stroke-width:1" />
             
                <title>normalizePort = (val) =&gt;</title>
            <text x="75" y="100"
                font-family="monospace" font-size="13" fill="#222">
                <tspan x="75" y="100">normalizePort = (val) =&gt;</tspan>
            </text>
                
            </g>
                <g>
                   <rect x="87" y="128.5"
            width="248.4" height="30"
            rx="3" ry="3"
            style="fill:#90caf9; stroke:#444; stroke-width:1" />
                   <title>let port = parseInt(val, 10)</title>
            <text x="102" y="148.5"
                font-family="monospace" font-size="13" fill="#222">
                <tspan x="102" y="148.5">let port = parseInt(val, 10)</tspan>
            </text>
                   
                   
                </g><g>
            <rect x="117" y="192"
            width="161.39999999999998" height="30"
            rx="3" ry="3"
            style="fill:#ce93d8; stroke:#444; stroke-width:1" />                
            <polygon points="87,207 117,177 147,207 117,237"
            style="fill:#ce93d8; stroke:#444; stroke-width:1" />
            <title>(isNaN(port))</title>
            <text x="162" y="212"
                font-family="monospace" font-size="13" fill="#222">
                <tspan x="162" y="212">(isNaN(port))</tspan>
            </text>
            
            <text x="109.2" y="212"
        font-family="monospace" font-size="13" fill="#222">if</text> <text x="124.8" y="238.95"
        font-family="monospace" font-size="13" fill="#222">+</text> 
        </g>
            <g>
                <rect x="137" y="247"
            width="108" height="30"
            rx="3" ry="3"
            style="fill:#90caf9; stroke:#444; stroke-width:1" />
                
                <line x1="245" y1="257" x2="250" y2="257"
                style="fill:#a5d6a7; stroke:#444; stroke-width:1" />
                
                <line x1="245" y1="267" x2="250" y2="267"
                style="fill:#a5d6a7; stroke:#444; stroke-width:1" />

                <path d="M250, 251 L266, 262 L250, 273 Z" 
        fill="#a5d6a7" stroke="#444" stroke-width="1" />
                             
                <title>return val</title>
            <text x="152" y="267"
                font-family="monospace" font-size="13" fill="#222">
                <tspan x="152" y="267">return val</tspan>
            </text>
                
            </g><g>
            <rect x="117" y="312"
            width="145.8" height="30"
            rx="3" ry="3"
            style="fill:#ce93d8; stroke:#444; stroke-width:1" />                
            <polygon points="87,327 117,297 147,327 117,357"
            style="fill:#ce93d8; stroke:#444; stroke-width:1" />
            <title>(port &gt;= 0)</title>
            <text x="162" y="332"
                font-family="monospace" font-size="13" fill="#222">
                <tspan x="162" y="332">(port &gt;= 0)</tspan>
            </text>
            
            <text x="109.2" y="332"
        font-family="monospace" font-size="13" fill="#222">if</text> <text x="124.8" y="358.95"
        font-family="monospace" font-size="13" fill="#222">+</text> 
        </g>
            <g>
                <rect x="137" y="367"
            width="115.80000000000001" height="30"
            rx="3" ry="3"
            style="fill:#90caf9; stroke:#444; stroke-width:1" />
                
                <line x1="252.8" y1="377" x2="257.8" y2="377"
                style="fill:#a5d6a7; stroke:#444; stroke-width:1" />
                
                <line x1="252.8" y1="387" x2="257.8" y2="387"
                style="fill:#a5d6a7; stroke:#444; stroke-width:1" />

                <path d="M257.8, 371 L273.8, 382 L257.8, 393 Z" 
        fill="#a5d6a7" stroke="#444" stroke-width="1" />
                             
                <title>return port</title>
            <text x="152" y="387"
                font-family="monospace" font-size="13" fill="#222">
                <tspan x="152" y="387">return port</tspan>
            </text>
                
            </g>
                <g>
                   <rect x="50" y="417"
            width="240.6" height="30"
            rx="3" ry="3"
            style="fill:#90caf9; stroke:#444; stroke-width:1" />
                   <title>let app = require(&apos;../app&apos;)</title>
            <text x="65" y="437"
                font-family="monospace" font-size="13" fill="#222">
                <tspan x="65" y="437">let app = require(&apos;../app&apos;)</tspan>
            </text>
                   
                   
                </g>
                <g>
                   <rect x="50" y="465.5"
            width="271.79999999999995" height="30"
            rx="3" ry="3"
            style="fill:#90caf9; stroke:#444; stroke-width:1" />
                   <title>let eip = require(&apos;externalip&apos;)</title>
            <text x="65" y="485.5"
                font-family="monospace" font-size="13" fill="#222">
                <tspan x="65" y="485.5">let eip = require(&apos;externalip&apos;)</tspan>
            </text>
                   
                   
                </g>
                <g>
                   <rect x="50" y="514"
            width="412.2" height="30"
            rx="3" ry="3"
            style="fill:#90caf9; stroke:#444; stroke-width:1" />
                   <title>let port = normalizePort(process.env.PORT || 3e3)</title>
            <text x="65" y="534"
                font-family="monospace" font-size="13" fill="#222">
                <tspan x="65" y="534">let port = normalizePort(process.env.PORT || 3e3)</tspan>
            </text>
                   
                   
                </g>
                <g>
                   <rect x="50" y="562.5"
            width="295.2" height="30"
            rx="3" ry="3"
            style="fill:#90caf9; stroke:#444; stroke-width:1" />
                   <title>let server = app.listen(port, *())</title>
            <text x="65" y="582.5"
                font-family="monospace" font-size="13" fill="#222">
                <tspan x="65" y="582.5">let server = app.listen(port, *())</tspan>
            </text>
                   
                   
                </g>
            <g>
                <rect x="87" y="611"
            width="89" height="30"
            style="fill:#a5d6a7; stroke:#444; stroke-width:1" />
                    
                <line x1="97" y1="611" x2="97" y2="641"
                style="fill:#a5d6a7; stroke:#444; stroke-width:1" />
                <line x1="166" y1="611" x2="166" y2="641"
                style="fill:#a5d6a7; stroke:#444; stroke-width:1" />
             
                <title>() =&gt;</title>
            <text x="112" y="631"
                font-family="monospace" font-size="13" fill="#222">
                <tspan x="112" y="631">() =&gt;</tspan>
            </text>
                
            </g>
                <g>
                   <rect x="124" y="659.5"
            width="279.6" height="30"
            rx="3" ry="3"
            style="fill:#90caf9; stroke:#444; stroke-width:1" />
                   <title>let ipAddress = server.address()</title>
            <text x="139" y="679.5"
                font-family="monospace" font-size="13" fill="#222">
                <tspan x="139" y="679.5">let ipAddress = server.address()</tspan>
            </text>
                   
                   
                </g>
                <g>
                   <rect x="124" y="708"
            width="147" height="30"
            rx="3" ry="3"
            style="fill:#90caf9; stroke:#444; stroke-width:1" />
                   <title>let location = </title>
            <text x="139" y="728"
                font-family="monospace" font-size="13" fill="#222">
                <tspan x="139" y="728">let location = </tspan>
            </text>
                   
                   
                </g><g>
            <rect x="191" y="771.5"
            width="301.79999999999995" height="30"
            rx="3" ry="3"
            style="fill:#ce93d8; stroke:#444; stroke-width:1" />                
            <polygon points="161,786.5 191,756.5 221,786.5 191,816.5"
            style="fill:#ce93d8; stroke:#444; stroke-width:1" />
            <title>(typeof ipAddress === &apos;string&apos;)</title>
            <text x="236" y="791.5"
                font-family="monospace" font-size="13" fill="#222">
                <tspan x="236" y="791.5">(typeof ipAddress === &apos;string&apos;)</tspan>
            </text>
            
            <text x="187.1" y="791.5"
        font-family="monospace" font-size="13" fill="#222">?</text> <text x="198.8" y="818.45"
        font-family="monospace" font-size="13" fill="#222">+</text> <text x="496.69999999999993" y="784.55"
        font-family="monospace" font-size="13" fill="#222">-</text>
        </g>
                <g>
                   <rect x="211" y="826.5"
            width="100.2" height="30"
            rx="3" ry="3"
            style="fill:#90caf9; stroke:#444; stroke-width:1" />
                   <title>ipAddress</title>
            <text x="226" y="846.5"
                font-family="monospace" font-size="13" fill="#222">
                <tspan x="226" y="846.5">ipAddress</tspan>
            </text>
                   
                   
                </g><g>
            <rect x="582.8" y="841.5"
            width="278.4" height="30"
            rx="3" ry="3"
            style="fill:#ce93d8; stroke:#444; stroke-width:1" />                
            <polygon points="552.8,856.5 582.8,826.5 612.8,856.5 582.8,886.5"
            style="fill:#ce93d8; stroke:#444; stroke-width:1" />
            <title>(ipAddress.address === &apos;::&apos;)</title>
            <text x="627.8" y="861.5"
                font-family="monospace" font-size="13" fill="#222">
                <tspan x="627.8" y="861.5">(ipAddress.address === &apos;::&apos;)</tspan>
            </text>
            
            <text x="578.9" y="861.5"
        font-family="monospace" font-size="13" fill="#222">?</text> <text x="590.5999999999999" y="888.45"
        font-family="monospace" font-size="13" fill="#222">+</text> 
        </g>
                <g>
                   <rect x="602.8" y="896.5"
            width="115.8" height="30"
            rx="3" ry="3"
            style="fill:#90caf9; stroke:#444; stroke-width:1" />
                   <title>&apos;localhost&apos;</title>
            <text x="617.8" y="916.5"
                font-family="monospace" font-size="13" fill="#222">
                <tspan x="617.8" y="916.5">&apos;localhost&apos;</tspan>
            </text>
                   
                   
                </g>
                <g>
                   <rect x="124" y="946.5"
            width="349.8" height="30"
            rx="2" ry="2"
            style="fill:#C5E1A5; stroke:#444; stroke-width:1" />
                   <title>console.log(&apos;App listening at&apos;, location)</title>
            <text x="139" y="966.5"
                font-family="monospace" font-size="13" fill="#222">
                <tspan x="139" y="966.5">console.log(&apos;App listening at&apos;, location)</tspan>
            </text>
                   
                   
                </g>
                <g>
                   <rect x="50" y="995"
            width="209.4" height="30"
            rx="2" ry="2"
            style="fill:#C5E1A5; stroke:#444; stroke-width:1" />
                   <title>server.on(&apos;error&apos;, *())</title>
            <text x="65" y="1015"
                font-family="monospace" font-size="13" fill="#222">
                <tspan x="65" y="1015">server.on(&apos;error&apos;, *())</tspan>
            </text>
                   
                   
                </g>
            <g>
                <rect x="87" y="1043.5"
            width="128" height="30"
            style="fill:#a5d6a7; stroke:#444; stroke-width:1" />
                    
                <line x1="97" y1="1043.5" x2="97" y2="1073.5"
                style="fill:#a5d6a7; stroke:#444; stroke-width:1" />
                <line x1="205" y1="1043.5" x2="205" y2="1073.5"
                style="fill:#a5d6a7; stroke:#444; stroke-width:1" />
             
                <title>(error) =&gt;</title>
            <text x="112" y="1063.5"
                font-family="monospace" font-size="13" fill="#222">
                <tspan x="112" y="1063.5">(error) =&gt;</tspan>
            </text>
                
            </g><g>
            <rect x="154" y="1107"
            width="278.4" height="30"
            rx="3" ry="3"
            style="fill:#ce93d8; stroke:#444; stroke-width:1" />                
            <polygon points="124,1122 154,1092 184,1122 154,1152"
            style="fill:#ce93d8; stroke:#444; stroke-width:1" />
            <title>(error.syscall !== &apos;listen&apos;)</title>
            <text x="199" y="1127"
                font-family="monospace" font-size="13" fill="#222">
                <tspan x="199" y="1127">(error.syscall !== &apos;listen&apos;)</tspan>
            </text>
            
            <text x="146.2" y="1127"
        font-family="monospace" font-size="13" fill="#222">if</text> <text x="161.8" y="1153.95"
        font-family="monospace" font-size="13" fill="#222">+</text> 
        </g>
                <g>
                   <rect x="174" y="1162"
            width="115.8" height="30"
            rx="2" ry="2"
            style="fill:#ef9a9a; stroke:#444; stroke-width:1" />
                   <title>throw error</title>
            <text x="189" y="1182"
                font-family="monospace" font-size="13" fill="#222">
                <tspan x="189" y="1182">throw error</tspan>
            </text>
                   
                   
                </g>
                <g>
                   <rect x="211" y="1210.5"
            width="69" height="30"
            rx="3" ry="3"
            style="fill:#90caf9; stroke:#444; stroke-width:1" />
                   <title>error</title>
            <text x="226" y="1230.5"
                font-family="monospace" font-size="13" fill="#222">
                <tspan x="226" y="1230.5">error</tspan>
            </text>
                   
                   
                </g>
                <g>
                   <rect x="124" y="1260.5"
            width="115.8" height="30"
            rx="3" ry="3"
            style="fill:#90caf9; stroke:#444; stroke-width:1" />
                   <title>let bind = </title>
            <text x="139" y="1280.5"
                font-family="monospace" font-size="13" fill="#222">
                <tspan x="139" y="1280.5">let bind = </tspan>
            </text>
                   
                   
                </g><g>
            <rect x="191" y="1324"
            width="262.79999999999995" height="30"
            rx="3" ry="3"
            style="fill:#ce93d8; stroke:#444; stroke-width:1" />                
            <polygon points="161,1339 191,1309 221,1339 191,1369"
            style="fill:#ce93d8; stroke:#444; stroke-width:1" />
            <title>(typeof port === &apos;string&apos;)</title>
            <text x="236" y="1344"
                font-family="monospace" font-size="13" fill="#222">
                <tspan x="236" y="1344">(typeof port === &apos;string&apos;)</tspan>
            </text>
            
            <text x="187.1" y="1344"
        font-family="monospace" font-size="13" fill="#222">?</text> <text x="198.8" y="1370.95"
        font-family="monospace" font-size="13" fill="#222">+</text> <text x="457.69999999999993" y="1337.05"
        font-family="monospace" font-size="13" fill="#222">-</text>
        </g>
                <g>
                   <rect x="211" y="1379"
            width="61.2" height="30"
            rx="3" ry="3"
            style="fill:#90caf9; stroke:#444; stroke-width:1" />
                   <title>port</title>
            <text x="226" y="1399"
                font-family="monospace" font-size="13" fill="#222">
                <tspan x="226" y="1399">port</tspan>
            </text>
                   
                   
                </g>
                <g>
                   <rect x="513.8" y="1379"
            width="61.2" height="30"
            rx="3" ry="3"
            style="fill:#90caf9; stroke:#444; stroke-width:1" />
                   <title>port</title>
            <text x="528.8" y="1399"
                font-family="monospace" font-size="13" fill="#222">
                <tspan x="528.8" y="1399">port</tspan>
            </text>
                   
                   
                </g><g>
            <rect x="154" y="1444"
            width="208.2" height="30"
            rx="3" ry="3"
            style="fill:#ce93d8; stroke:#444; stroke-width:1" />                
            <polygon points="124,1459 154,1429 184,1459 154,1489"
            style="fill:#ce93d8; stroke:#444; stroke-width:1" />
            <title>switch (error.code)</title>
            <text x="199" y="1464"
                font-family="monospace" font-size="13" fill="#222">
                <tspan x="199" y="1464">switch (error.code)</tspan>
            </text>
            
            <text x="146.2" y="1464"
        font-family="monospace" font-size="13" fill="#222">if</text> <text x="161.8" y="1490.95"
        font-family="monospace" font-size="13" fill="#222">+</text> 
        </g>
                <g>
                   <rect x="174" y="1499"
            width="139.2" height="30"
            rx="2" ry="2"
            style="fill:#ce93d8; stroke:#444; stroke-width:1" />
                   <title>case &apos;EACCES&apos;:</title>
            <text x="189" y="1519"
                font-family="monospace" font-size="13" fill="#222">
                <tspan x="189" y="1519">case &apos;EACCES&apos;:</tspan>
            </text>
                   
                   
                </g>
                <g>
                   <rect x="211" y="1547.5"
            width="61.2" height="30"
            rx="3" ry="3"
            style="fill:#90caf9; stroke:#444; stroke-width:1" />
                   <title>bind</title>
            <text x="226" y="1567.5"
                font-family="monospace" font-size="13" fill="#222">
                <tspan x="226" y="1567.5">bind</tspan>
            </text>
                   
                   
                </g>
                <g>
                   <rect x="211" y="1596"
            width="443.4" height="30"
            rx="2" ry="2"
            style="fill:#C5E1A5; stroke:#444; stroke-width:1" />
                   <title>console.error(`${bind} requires elevated privileges`)</title>
            <text x="226" y="1616"
                font-family="monospace" font-size="13" fill="#222">
                <tspan x="226" y="1616">console.error(`${bind} requires elevated privilege...</tspan>
            </text>
                   
                   
                </g>
                <g>
                   <rect x="211" y="1644.5"
            width="147" height="30"
            rx="2" ry="2"
            style="fill:#C5E1A5; stroke:#444; stroke-width:1" />
                   <title>process.exit(1)</title>
            <text x="226" y="1664.5"
                font-family="monospace" font-size="13" fill="#222">
                <tspan x="226" y="1664.5">process.exit(1)</tspan>
            </text>
                   
                   
                </g>
            <g>
                <rect x="211" y="1693"
            width="69" height="30"
            rx="2" ry="2"
            style="fill:#90caf9; stroke:#444; stroke-width:1" />
                
                <line x1="280" y1="1703" x2="285" y2="1703"
                style="fill:#ce93d8; stroke:#444; stroke-width:1" />
                
                <line x1="280" y1="1713" x2="285" y2="1713"
                style="fill:#ce93d8; stroke:#444; stroke-width:1" />

                <path d="M285, 1694 L301, 1708 L285, 1722 Z" 
        fill="#ce93d8" stroke="#444" stroke-width="1" />
                             
                <title>break</title>
            <text x="226" y="1713"
                font-family="monospace" font-size="13" fill="#222">
                <tspan x="226" y="1713">break</tspan>
            </text>
                
            </g>
                <g>
                   <rect x="174" y="1741.5"
            width="170.4" height="30"
            rx="2" ry="2"
            style="fill:#ce93d8; stroke:#444; stroke-width:1" />
                   <title>case &apos;EADDRINUSE&apos;:</title>
            <text x="189" y="1761.5"
                font-family="monospace" font-size="13" fill="#222">
                <tspan x="189" y="1761.5">case &apos;EADDRINUSE&apos;:</tspan>
            </text>
                   
                   
                </g>
                <g>
                   <rect x="211" y="1790"
            width="61.2" height="30"
            rx="3" ry="3"
            style="fill:#90caf9; stroke:#444; stroke-width:1" />
                   <title>bind</title>
            <text x="226" y="1810"
                font-family="monospace" font-size="13" fill="#222">
                <tspan x="226" y="1810">bind</tspan>
            </text>
                   
                   
                </g>
                <g>
                   <rect x="211" y="1838.5"
            width="357.59999999999997" height="30"
            rx="2" ry="2"
            style="fill:#C5E1A5; stroke:#444; stroke-width:1" />
                   <title>console.error(`${bind} is already in use`)</title>
            <text x="226" y="1858.5"
                font-family="monospace" font-size="13" fill="#222">
                <tspan x="226" y="1858.5">console.error(`${bind} is already in use`)</tspan>
            </text>
                   
                   
                </g>
                <g>
                   <rect x="211" y="1887"
            width="147" height="30"
            rx="2" ry="2"
            style="fill:#C5E1A5; stroke:#444; stroke-width:1" />
                   <title>process.exit(1)</title>
            <text x="226" y="1907"
                font-family="monospace" font-size="13" fill="#222">
                <tspan x="226" y="1907">process.exit(1)</tspan>
            </text>
                   
                   
                </g>
            <g>
                <rect x="211" y="1935.5"
            width="69" height="30"
            rx="2" ry="2"
            style="fill:#90caf9; stroke:#444; stroke-width:1" />
                
                <line x1="280" y1="1945.5" x2="285" y2="1945.5"
                style="fill:#ce93d8; stroke:#444; stroke-width:1" />
                
                <line x1="280" y1="1955.5" x2="285" y2="1955.5"
                style="fill:#ce93d8; stroke:#444; stroke-width:1" />

                <path d="M285, 1936.5 L301, 1950.5 L285, 1964.5 Z" 
        fill="#ce93d8" stroke="#444" stroke-width="1" />
                             
                <title>break</title>
            <text x="226" y="1955.5"
                font-family="monospace" font-size="13" fill="#222">
                <tspan x="226" y="1955.5">break</tspan>
            </text>
                
            </g>
                <g>
                   <rect x="174" y="1984"
            width="139.2" height="30"
            rx="2" ry="2"
            style="fill:#ce93d8; stroke:#444; stroke-width:1" />
                   <title>case &apos;ENOENT&apos;:</title>
            <text x="189" y="2004"
                font-family="monospace" font-size="13" fill="#222">
                <tspan x="189" y="2004">case &apos;ENOENT&apos;:</tspan>
            </text>
                   
                   
                </g>
                <g>
                   <rect x="211" y="2032.5"
            width="61.2" height="30"
            rx="3" ry="3"
            style="fill:#90caf9; stroke:#444; stroke-width:1" />
                   <title>bind</title>
            <text x="226" y="2052.5"
                font-family="monospace" font-size="13" fill="#222">
                <tspan x="226" y="2052.5">bind</tspan>
            </text>
                   
                   
                </g>
                <g>
                   <rect x="211" y="2081"
            width="443.4" height="30"
            rx="2" ry="2"
            style="fill:#C5E1A5; stroke:#444; stroke-width:1" />
                   <title>console.log(`Inexistent entry requested at ${bind}`)</title>
            <text x="226" y="2101"
                font-family="monospace" font-size="13" fill="#222">
                <tspan x="226" y="2101">console.log(`Inexistent entry requested at ${bind}...</tspan>
            </text>
                   
                   
                </g>
            <g>
                <rect x="211" y="2129.5"
            width="69" height="30"
            rx="2" ry="2"
            style="fill:#90caf9; stroke:#444; stroke-width:1" />
                
                <line x1="280" y1="2139.5" x2="285" y2="2139.5"
                style="fill:#ce93d8; stroke:#444; stroke-width:1" />
                
                <line x1="280" y1="2149.5" x2="285" y2="2149.5"
                style="fill:#ce93d8; stroke:#444; stroke-width:1" />

                <path d="M285, 2130.5 L301, 2144.5 L285, 2158.5 Z" 
        fill="#ce93d8" stroke="#444" stroke-width="1" />
                             
                <title>break</title>
            <text x="226" y="2149.5"
                font-family="monospace" font-size="13" fill="#222">
                <tspan x="226" y="2149.5">break</tspan>
            </text>
                
            </g>
                <g>
                   <rect x="174" y="2178"
            width="92.4" height="30"
            rx="2" ry="2"
            style="fill:#ce93d8; stroke:#444; stroke-width:1" />
                   <title>default:</title>
            <text x="189" y="2198"
                font-family="monospace" font-size="13" fill="#222">
                <tspan x="189" y="2198">default:</tspan>
            </text>
                   
                   
                </g>
                <g>
                   <rect x="211" y="2226.5"
            width="115.8" height="30"
            rx="2" ry="2"
            style="fill:#ef9a9a; stroke:#444; stroke-width:1" />
                   <title>throw error</title>
            <text x="226" y="2246.5"
                font-family="monospace" font-size="13" fill="#222">
                <tspan x="226" y="2246.5">throw error</tspan>
            </text>
                   
                   
                </g>
                <g>
                   <rect x="248" y="2275"
            width="69" height="30"
            rx="3" ry="3"
            style="fill:#90caf9; stroke:#444; stroke-width:1" />
                   <title>error</title>
            <text x="263" y="2295"
                font-family="monospace" font-size="13" fill="#222">
                <tspan x="263" y="2295">error</tspan>
            </text>
                   
                   
                </g>
                <g>
                   <rect x="50" y="2323.5"
            width="92.4" height="30"
            rx="2" ry="2"
            style="fill:#C5E1A5; stroke:#444; stroke-width:1" />
                   <title>eip(*())</title>
            <text x="65" y="2343.5"
                font-family="monospace" font-size="13" fill="#222">
                <tspan x="65" y="2343.5">eip(*())</tspan>
            </text>
                   
                   
                </g>
            <g>
                <rect x="87" y="2372"
            width="143.6" height="30"
            style="fill:#a5d6a7; stroke:#444; stroke-width:1" />
                    
                <line x1="97" y1="2372" x2="97" y2="2402"
                style="fill:#a5d6a7; stroke:#444; stroke-width:1" />
                <line x1="220.6" y1="2372" x2="220.6" y2="2402"
                style="fill:#a5d6a7; stroke:#444; stroke-width:1" />
             
                <title>(err, ip) =&gt;</title>
            <text x="112" y="2392"
                font-family="monospace" font-size="13" fill="#222">
                <tspan x="112" y="2392">(err, ip) =&gt;</tspan>
            </text>
                
            </g><g>
            <rect x="154" y="2435.5"
            width="99" height="30"
            rx="3" ry="3"
            style="fill:#ce93d8; stroke:#444; stroke-width:1" />                
            <polygon points="124,2450.5 154,2420.5 184,2450.5 154,2480.5"
            style="fill:#ce93d8; stroke:#444; stroke-width:1" />
            <title>(err)</title>
            <text x="199" y="2455.5"
                font-family="monospace" font-size="13" fill="#222">
                <tspan x="199" y="2455.5">(err)</tspan>
            </text>
            
            <text x="146.2" y="2455.5"
        font-family="monospace" font-size="13" fill="#222">if</text> <text x="161.8" y="2482.45"
        font-family="monospace" font-size="13" fill="#222">+</text> 
        </g>
                <g>
                   <rect x="174" y="2490.5"
            width="310.8" height="30"
            rx="2" ry="2"
            style="fill:#C5E1A5; stroke:#444; stroke-width:1" />
                   <title>console.log(&apos;Public IP error:&apos;, err)</title>
            <text x="189" y="2510.5"
                font-family="monospace" font-size="13" fill="#222">
                <tspan x="189" y="2510.5">console.log(&apos;Public IP error:&apos;, err)</tspan>
            </text>
                   
                   
                </g>
                <g>
                   <rect x="124" y="2540.5"
            width="256.2" height="30"
            rx="2" ry="2"
            style="fill:#C5E1A5; stroke:#444; stroke-width:1" />
                   <title>console.log(&apos;Public IP:&apos;, ip)</title>
            <text x="139" y="2560.5"
                font-family="monospace" font-size="13" fill="#222">
                <tspan x="139" y="2560.5">console.log(&apos;Public IP:&apos;, ip)</tspan>
            </text>
                   
                   
                </g>
            <g>
               <rect x="25" y="13.75"
            width="216.6" height="24"
            style="fill:#fff59d; stroke:#444; stroke-width:1" />
               <circle cx="25" cy="25" r="15"
        style="fill:#fff59d; stroke:#444; stroke-width:1" />
               <title>Program: source module</title>
            <text x="55" y="30"
                font-family="monospace" font-size="13" fill="#222">
                <tspan x="55" y="30">Program: source module</tspan>
            </text>
            </g>
            <g>
               <path d="M25, 40 L25 91 Q25 95
                29 95
                L42 95 "
        style="fill:none; stroke:#444; stroke-width:1" />
               <path d="M42, 92 L50, 95 L42, 98 Z" 
        fill="#333" />
            </g>
            <g>
               <path d="M68.5, 110 L68.5 139.5 Q68.5 143.5
                72.5 143.5
                L79 143.5 "
        style="fill:none; stroke:#444; stroke-width:1" />
               <path d="M79, 140.5 L87, 143.5 L79, 146.5 Z" 
        fill="#333" />
            </g>
            <g>
               <path d="M68.5, 110 L68.5 203 Q68.5 207
                72.5 207
                L79 207 "
        style="fill:none; stroke:#444; stroke-width:1" />
               <path d="M79, 204 L87, 207 L79, 210 Z" 
        fill="#333" />
            </g>
            <g>
               <path d="M117, 237 L117 258 Q117 262
                121 262
                L129 262 "
        style="fill:none; stroke:#444; stroke-width:1" />
               <path d="M129, 259 L137, 262 L129, 265 Z" 
        fill="#333" />
            </g>
            <g>
               <path d="M68.5, 110 L68.5 323 Q68.5 327
                72.5 327
                L79 327 "
        style="fill:none; stroke:#444; stroke-width:1" />
               <path d="M79, 324 L87, 327 L79, 330 Z" 
        fill="#333" />
            </g>
            <g>
               <path d="M117, 357 L117 378 Q117 382
                121 382
                L129 382 "
        style="fill:none; stroke:#444; stroke-width:1" />
               <path d="M129, 379 L137, 382 L129, 385 Z" 
        fill="#333" />
            </g>
            <g>
               <path d="M25, 40 L25 428 Q25 432
                29 432
                L42 432 "
        style="fill:none; stroke:#444; stroke-width:1" />
               <path d="M42, 429 L50, 432 L42, 435 Z" 
        fill="#333" />
            </g>
            <g>
               <path d="M25, 40 L25 476.5 Q25 480.5
                29 480.5
                L42 480.5 "
        style="fill:none; stroke:#444; stroke-width:1" />
               <path d="M42, 477.5 L50, 480.5 L42, 483.5 Z" 
        fill="#333" />
            </g>
            <g>
               <path d="M25, 40 L25 525 Q25 529
                29 529
                L42 529 "
        style="fill:none; stroke:#444; stroke-width:1" />
               <path d="M42, 526 L50, 529 L42, 532 Z" 
        fill="#333" />
            </g>
            <g>
               <path d="M25, 40 L25 573.5 Q25 577.5
                29 577.5
                L42 577.5 "
        style="fill:none; stroke:#444; stroke-width:1" />
               <path d="M42, 574.5 L50, 577.5 L42, 580.5 Z" 
        fill="#333" />
            </g>
            <g>
               <path d="M68.5, 592.5 L68.5 622 Q68.5 626
                72.5 626
                L87 626 "
        style="fill:none; stroke:#444; stroke-width:1" />
               false
            </g>
            <g>
               <path d="M105.5, 641 L105.5 670.5 Q105.5 674.5
                109.5 674.5
                L116 674.5 "
        style="fill:none; stroke:#444; stroke-width:1" />
               <path d="M116, 671.5 L124, 674.5 L116, 677.5 Z" 
        fill="#333" />
            </g>
            <g>
               <path d="M105.5, 641 L105.5 719 Q105.5 723
                109.5 723
                L116 723 "
        style="fill:none; stroke:#444; stroke-width:1" />
               <path d="M116, 720 L124, 723 L116, 726 Z" 
        fill="#333" />
            </g>
            <g>
               <path d="M142.5, 738 L142.5 782.5 Q142.5 786.5
                146.5 786.5
                L153 786.5 "
        style="fill:none; stroke:#444; stroke-width:1" />
               <path d="M153, 783.5 L161, 786.5 L153, 789.5 Z" 
        fill="#333" />
            </g>
            <g>
               <path d="M191, 816.5 L191 837.5 Q191 841.5
                195 841.5
                L203 841.5 "
        style="fill:none; stroke:#444; stroke-width:1" />
               <path d="M203, 838.5 L211, 841.5 L203, 844.5 Z" 
        fill="#333" />
            </g>
            <g>
               <path d="M492.79999999999995, 786.5 L528.8 786.5  Q532.8 786.5
                532.8 790.5
                L532.8 848.5 Q532.8 856.5
                536.8 856.5
                L544.8 856.5 "
        style="fill:none; stroke:#444; stroke-width:1" />
               <path d="M544.8, 853.5 L552.8, 856.5 L544.8, 859.5 Z" 
        fill="#333" />
            </g>
            <g>
               <path d="M582.8, 886.5 L582.8 907.5 Q582.8 911.5
                586.8 911.5
                L594.8 911.5 "
        style="fill:none; stroke:#444; stroke-width:1" />
               <path d="M594.8, 908.5 L602.8, 911.5 L594.8, 914.5 Z" 
        fill="#333" />
            </g>
            <g>
               <path d="M105.5, 641 L105.5 957.5 Q105.5 961.5
                109.5 961.5
                L116 961.5 "
        style="fill:none; stroke:#444; stroke-width:1" />
               <path d="M116, 958.5 L124, 961.5 L116, 964.5 Z" 
        fill="#333" />
            </g>
            <g>
               <path d="M25, 40 L25 1006 Q25 1010
                29 1010
                L42 1010 "
        style="fill:none; stroke:#444; stroke-width:1" />
               <path d="M42, 1007 L50, 1010 L42, 1013 Z" 
        fill="#333" />
            </g>
            <g>
               <path d="M68.5, 1025 L68.5 1054.5 Q68.5 1058.5
                72.5 1058.5
                L87 1058.5 "
        style="fill:none; stroke:#444; stroke-width:1" />
               false
            </g>
            <g>
               <path d="M105.5, 1073.5 L105.5 1118 Q105.5 1122
                109.5 1122
                L116 1122 "
        style="fill:none; stroke:#444; stroke-width:1" />
               <path d="M116, 1119 L124, 1122 L116, 1125 Z" 
        fill="#333" />
            </g>
            <g>
               <path d="M154, 1152 L154 1173 Q154 1177
                158 1177
                L166 1177 "
        style="fill:none; stroke:#444; stroke-width:1" />
               <path d="M166, 1174 L174, 1177 L166, 1180 Z" 
        fill="#333" />
            </g>
            <g>
               <path d="M192.5, 1192 L192.5 1221.5 Q192.5 1225.5
                196.5 1225.5
                L203 1225.5 "
        style="fill:none; stroke:#444; stroke-width:1" />
               <path d="M203, 1222.5 L211, 1225.5 L203, 1228.5 Z" 
        fill="#333" />
            </g>
            <g>
               <path d="M105.5, 1073.5 L105.5 1271.5 Q105.5 1275.5
                109.5 1275.5
                L116 1275.5 "
        style="fill:none; stroke:#444; stroke-width:1" />
               <path d="M116, 1272.5 L124, 1275.5 L116, 1278.5 Z" 
        fill="#333" />
            </g>
            <g>
               <path d="M142.5, 1290.5 L142.5 1335 Q142.5 1339
                146.5 1339
                L153 1339 "
        style="fill:none; stroke:#444; stroke-width:1" />
               <path d="M153, 1336 L161, 1339 L153, 1342 Z" 
        fill="#333" />
            </g>
            <g>
               <path d="M191, 1369 L191 1390 Q191 1394
                195 1394
                L203 1394 "
        style="fill:none; stroke:#444; stroke-width:1" />
               <path d="M203, 1391 L211, 1394 L203, 1397 Z" 
        fill="#333" />
            </g>
            <g>
               <path d="M453.79999999999995, 1339 L489.79999999999995 1339  Q493.79999999999995 1339
                493.79999999999995 1343
                L493.79999999999995 1386 Q493.79999999999995 1394
                497.79999999999995 1394
                L505.79999999999995 1394 "
        style="fill:none; stroke:#444; stroke-width:1" />
               <path d="M505.79999999999995, 1391 L513.8, 1394 L505.79999999999995, 1397 Z" 
        fill="#333" />
            </g>
            <g>
               <path d="M105.5, 1073.5 L105.5 1455 Q105.5 1459
                109.5 1459
                L116 1459 "
        style="fill:none; stroke:#444; stroke-width:1" />
               <path d="M116, 1456 L124, 1459 L116, 1462 Z" 
        fill="#333" />
            </g>
            <g>
               <path d="M154, 1489 L154 1510 Q154 1514
                158 1514
                L166 1514 "
        style="fill:none; stroke:#444; stroke-width:1" />
               <path d="M166, 1511 L174, 1514 L166, 1517 Z" 
        fill="#333" />
            </g>
            <g>
               <path d="M192.5, 1529 L192.5 1558.5 Q192.5 1562.5
                196.5 1562.5
                L203 1562.5 "
        style="fill:none; stroke:#444; stroke-width:1" />
               <path d="M203, 1559.5 L211, 1562.5 L203, 1565.5 Z" 
        fill="#333" />
            </g>
            <g>
               <path d="M192.5, 1529 L192.5 1607 Q192.5 1611
                196.5 1611
                L203 1611 "
        style="fill:none; stroke:#444; stroke-width:1" />
               <path d="M203, 1608 L211, 1611 L203, 1614 Z" 
        fill="#333" />
            </g>
            <g>
               <path d="M192.5, 1529 L192.5 1655.5 Q192.5 1659.5
                196.5 1659.5
                L203 1659.5 "
        style="fill:none; stroke:#444; stroke-width:1" />
               <path d="M203, 1656.5 L211, 1659.5 L203, 1662.5 Z" 
        fill="#333" />
            </g>
            <g>
               <path d="M192.5, 1529 L192.5 1704 Q192.5 1708
                196.5 1708
                L203 1708 "
        style="fill:none; stroke:#444; stroke-width:1" />
               <path d="M203, 1705 L211, 1708 L203, 1711 Z" 
        fill="#333" />
            </g>
            <g>
               <path d="M154, 1489 L154 1752.5 Q154 1756.5
                158 1756.5
                L166 1756.5 "
        style="fill:none; stroke:#444; stroke-width:1" />
               <path d="M166, 1753.5 L174, 1756.5 L166, 1759.5 Z" 
        fill="#333" />
            </g>
            <g>
               <path d="M192.5, 1771.5 L192.5 1801 Q192.5 1805
                196.5 1805
                L203 1805 "
        style="fill:none; stroke:#444; stroke-width:1" />
               <path d="M203, 1802 L211, 1805 L203, 1808 Z" 
        fill="#333" />
            </g>
            <g>
               <path d="M192.5, 1771.5 L192.5 1849.5 Q192.5 1853.5
                196.5 1853.5
                L203 1853.5 "
        style="fill:none; stroke:#444; stroke-width:1" />
               <path d="M203, 1850.5 L211, 1853.5 L203, 1856.5 Z" 
        fill="#333" />
            </g>
            <g>
               <path d="M192.5, 1771.5 L192.5 1898 Q192.5 1902
                196.5 1902
                L203 1902 "
        style="fill:none; stroke:#444; stroke-width:1" />
               <path d="M203, 1899 L211, 1902 L203, 1905 Z" 
        fill="#333" />
            </g>
            <g>
               <path d="M192.5, 1771.5 L192.5 1946.5 Q192.5 1950.5
                196.5 1950.5
                L203 1950.5 "
        style="fill:none; stroke:#444; stroke-width:1" />
               <path d="M203, 1947.5 L211, 1950.5 L203, 1953.5 Z" 
        fill="#333" />
            </g>
            <g>
               <path d="M154, 1489 L154 1995 Q154 1999
                158 1999
                L166 1999 "
        style="fill:none; stroke:#444; stroke-width:1" />
               <path d="M166, 1996 L174, 1999 L166, 2002 Z" 
        fill="#333" />
            </g>
            <g>
               <path d="M192.5, 2014 L192.5 2043.5 Q192.5 2047.5
                196.5 2047.5
                L203 2047.5 "
        style="fill:none; stroke:#444; stroke-width:1" />
               <path d="M203, 2044.5 L211, 2047.5 L203, 2050.5 Z" 
        fill="#333" />
            </g>
            <g>
               <path d="M192.5, 2014 L192.5 2092 Q192.5 2096
                196.5 2096
                L203 2096 "
        style="fill:none; stroke:#444; stroke-width:1" />
               <path d="M203, 2093 L211, 2096 L203, 2099 Z" 
        fill="#333" />
            </g>
            <g>
               <path d="M192.5, 2014 L192.5 2140.5 Q192.5 2144.5
                196.5 2144.5
                L203 2144.5 "
        style="fill:none; stroke:#444; stroke-width:1" />
               <path d="M203, 2141.5 L211, 2144.5 L203, 2147.5 Z" 
        fill="#333" />
            </g>
            <g>
               <path d="M154, 1489 L154 2189 Q154 2193
                158 2193
                L166 2193 "
        style="fill:none; stroke:#444; stroke-width:1" />
               <path d="M166, 2190 L174, 2193 L166, 2196 Z" 
        fill="#333" />
            </g>
            <g>
               <path d="M192.5, 2208 L192.5 2237.5 Q192.5 2241.5
                196.5 2241.5
                L203 2241.5 "
        style="fill:none; stroke:#444; stroke-width:1" />
               <path d="M203, 2238.5 L211, 2241.5 L203, 2244.5 Z" 
        fill="#333" />
            </g>
            <g>
               <path d="M229.5, 2256.5 L229.5 2286 Q229.5 2290
                233.5 2290
                L240 2290 "
        style="fill:none; stroke:#444; stroke-width:1" />
               <path d="M240, 2287 L248, 2290 L240, 2293 Z" 
        fill="#333" />
            </g>
            <g>
               <path d="M25, 40 L25 2334.5 Q25 2338.5
                29 2338.5
                L42 2338.5 "
        style="fill:none; stroke:#444; stroke-width:1" />
               <path d="M42, 2335.5 L50, 2338.5 L42, 2341.5 Z" 
        fill="#333" />
            </g>
            <g>
               <path d="M68.5, 2353.5 L68.5 2383 Q68.5 2387
                72.5 2387
                L87 2387 "
        style="fill:none; stroke:#444; stroke-width:1" />
               false
            </g>
            <g>
               <path d="M105.5, 2402 L105.5 2446.5 Q105.5 2450.5
                109.5 2450.5
                L116 2450.5 "
        style="fill:none; stroke:#444; stroke-width:1" />
               <path d="M116, 2447.5 L124, 2450.5 L116, 2453.5 Z" 
        fill="#333" />
            </g>
            <g>
               <path d="M154, 2480.5 L154 2501.5 Q154 2505.5
                158 2505.5
                L166 2505.5 "
        style="fill:none; stroke:#444; stroke-width:1" />
               <path d="M166, 2502.5 L174, 2505.5 L166, 2508.5 Z" 
        fill="#333" />
            </g>
            <g>
               <path d="M105.5, 2402 L105.5 2551.5 Q105.5 2555.5
                109.5 2555.5
                L116 2555.5 "
        style="fill:none; stroke:#444; stroke-width:1" />
               <path d="M116, 2552.5 L124, 2555.5 L116, 2558.5 Z" 
        fill="#333" />
            </g>
            </svg>